<svg xmlns="http://www.w3.org/2000/svg" viewBox="0 0 1200 600" width="100%" height="100%">
  <!-- Background gradient -->
  <defs>
    <linearGradient id="bg-gradient" x1="0%" y1="0%" x2="0%" y2="100%">
      <stop offset="0%" stop-color="#1a2a6c" />
      <stop offset="50%" stop-color="#b21f1f" />
      <stop offset="100%" stop-color="#fdbb2d" />
    </linearGradient>
    
    <!-- Overlay gradient -->
    <linearGradient id="overlay-gradient" x1="0%" y1="0%" x2="0%" y2="100%">
      <stop offset="0%" stop-color="rgba(0,0,0,0.7)" />
      <stop offset="100%" stop-color="rgba(0,0,0,0.3)" />
    </linearGradient>
  </defs>
  
  <!-- Background -->
  <rect width="1200" height="600" fill="url(#bg-gradient)" />
  
  <!-- Overlay for text readability -->
  <rect width="1200" height="600" fill="url(#overlay-gradient)" />
  
  <!-- Luxury hotel silhouette -->
  <g transform="translate(600, 400) scale(1.2)">
    <!-- Main building -->
    <rect x="-200" y="-150" width="400" height="150" fill="#263238" />
    
    <!-- Windows -->
    <g fill="#ffeb3b" opacity="0.8">
      <!-- Row 1 -->
      <rect x="-180" y="-140" width="20" height="30" />
      <rect x="-150" y="-140" width="20" height="30" />
      <rect x="-120" y="-140" width="20" height="30" />
      <rect x="-90" y="-140" width="20" height="30" />
      <rect x="-60" y="-140" width="20" height="30" />
      <rect x="-30" y="-140" width="20" height="30" />
      <rect x="0" y="-140" width="20" height="30" />
      <rect x="30" y="-140" width="20" height="30" />
      <rect x="60" y="-140" width="20" height="30" />
      <rect x="90" y="-140" width="20" height="30" />
      <rect x="120" y="-140" width="20" height="30" />
      <rect x="150" y="-140" width="20" height="30" />
      
      <!-- Row 2 -->
      <rect x="-180" y="-100" width="20" height="30" />
      <rect x="-150" y="-100" width="20" height="30" />
      <rect x="-120" y="-100" width="20" height="30" />
      <rect x="-90" y="-100" width="20" height="30" />
      <rect x="-60" y="-100" width="20" height="30" />
      <rect x="-30" y="-100" width="20" height="30" />
      <rect x="0" y="-100" width="20" height="30" />
      <rect x="30" y="-100" width="20" height="30" />
      <rect x="60" y="-100" width="20" height="30" />
      <rect x="90" y="-100" width="20" height="30" />
      <rect x="120" y="-100" width="20" height="30" />
      <rect x="150" y="-100" width="20" height="30" />
      
      <!-- Row 3 -->
      <rect x="-180" y="-60" width="20" height="30" />
      <rect x="-150" y="-60" width="20" height="30" />
      <rect x="-120" y="-60" width="20" height="30" />
      <rect x="-90" y="-60" width="20" height="30" />
      <rect x="-60" y="-60" width="20" height="30" />
      <rect x="-30" y="-60" width="20" height="30" />
      <rect x="0" y="-60" width="20" height="30" />
      <rect x="30" y="-60" width="20" height="30" />
      <rect x="60" y="-60" width="20" height="30" />
      <rect x="90" y="-60" width="20" height="30" />
      <rect x="120" y="-60" width="20" height="30" />
      <rect x="150" y="-60" width="20" height="30" />
    </g>
    
    <!-- Entrance -->
    <rect x="-50" y="-50" width="100" height="50" fill="#37474f" />
    
    <!-- Entrance pillars -->
    <rect x="-40" y="-50" width="10" height="50" fill="#455a64" />
    <rect x="30" y="-50" width="10" height="50" fill="#455a64" />
    
    <!-- Entrance steps -->
    <rect x="-30" y="-10" width="60" height="10" fill="#78909c" />
  </g>
  
  <!-- Palm trees -->
  <g>
    <!-- Left palm -->
    <rect x="100" y="300" width="10" height="100" fill="#5d4037" />
    <path d="M105,300 C120,270 140,280 150,260 M105,300 C90,270 70,280 60,260 M105,300 C115,260 110,250 120,230 M105,300 C95,260 100,250 90,230" stroke="#2e7d32" stroke-width="5" fill="none" />
    
    <!-- Right palm -->
    <rect x="1090" y="300" width="10" height="100" fill="#5d4037" />
    <path d="M1095,300 C1110,270 1130,280 1140,260 M1095,300 C1080,270 1060,280 1050,260 M1095,300 C1105,260 1100,250 1110,230 M1095,300 C1085,260 1090,250 1080,230" stroke="#2e7d32" stroke-width="5" fill="none" />
  </g>
  
  <!-- Swimming pool -->
  <ellipse cx="600" cy="500" rx="200" ry="50" fill="#29b6f6" opacity="0.8" />
  
  <!-- Reflections on pool -->
  <path d="M500,500 Q600,480 700,500" stroke="#fff" stroke-width="2" fill="none" opacity="0.5" />
  <path d="M520,490 Q600,470 680,490" stroke="#fff" stroke-width="2" fill="none" opacity="0.5" />
  
  <!-- Stars in the sky -->
  <g fill="#fff">
    <circle cx="100" cy="50" r="1" />
    <circle cx="200" cy="80" r="1.5" />
    <circle cx="300" cy="40" r="1" />
    <circle cx="400" cy="70" r="1.5" />
    <circle cx="500" cy="30" r="1" />
    <circle cx="600" cy="60" r="1.5" />
    <circle cx="700" cy="50" r="1" />
    <circle cx="800" cy="80" r="1.5" />
    <circle cx="900" cy="40" r="1" />
    <circle cx="1000" cy="70" r="1.5" />
    <circle cx="1100" cy="30" r="1" />
    <circle cx="150" cy="100" r="1.5" />
    <circle cx="250" cy="120" r="1" />
    <circle cx="350" cy="90" r="1.5" />
    <circle cx="450" cy="110" r="1" />
    <circle cx="550" cy="80" r="1.5" />
    <circle cx="650" cy="100" r="1" />
    <circle cx="750" cy="120" r="1.5" />
    <circle cx="850" cy="90" r="1" />
    <circle cx="950" cy="110" r="1.5" />
    <circle cx="1050" cy="80" r="1" />
  </g>
  
  <!-- Moon -->
  <circle cx="900" cy="100" r="40" fill="#fff" opacity="0.8" />
  <circle cx="880" cy="90" r="10" fill="#263238" opacity="0.1" />
  <circle cx="910" cy="110" r="8" fill="#263238" opacity="0.1" />
  <circle cx="890" cy="120" r="12" fill="#263238" opacity="0.1" />
</svg>